<svg xmlns="http://www.w3.org/2000/svg" viewBox="0 0 84.011 67"><defs><style>.a{fill:#e2c85a;}.b{fill:#292929;}</style></defs><g transform="translate(0.005)"><path class="a" d="M76.5,9.5A28.923,28.923,0,0,0,76,2.9,23.482,23.482,0,0,1,77.2,9L78,6.8a4.193,4.193,0,0,0-.7-4.3L75.3,0,74.1,3.1a4.193,4.193,0,0,0,.7,4.3Z"/><path class="a" d="M6.7,9A24.96,24.96,0,0,1,8,2.9a32.837,32.837,0,0,0-.6,6.6L9,7.6a4.9,4.9,0,0,0,.8-4.8L8.7,0,6.8,2.3A4.937,4.937,0,0,0,6,7.1Z"/><path class="a" d="M76.3,29.4l.2,3.9a46.243,46.243,0,0,0,4.3-7.1A34.553,34.553,0,0,1,77.2,34l3.5-2.3A7.368,7.368,0,0,0,84,25.3l-.2-4.9-4.2,2.7A7.1,7.1,0,0,0,76.3,29.4Z"/><path class="a" d="M4.5,19.9a22.766,22.766,0,0,1-.6-6.3,30.148,30.148,0,0,0,1.3,6.1L6.4,17a6.115,6.115,0,0,0-.6-6L3.5,7.9,2,11.3a6.115,6.115,0,0,0,.6,6Z"/><path class="a" d="M77.5,16.7l1.3,3a40.87,40.87,0,0,0,1.3-6.1,28.234,28.234,0,0,1-.6,6.3l2-2.8a5.637,5.637,0,0,0,.6-5.6L80.5,7.8l-2.4,3.3A5.662,5.662,0,0,0,77.5,16.7Z"/><path class="a" d="M65.8,50.8a36.451,36.451,0,0,1-8.3,5.8c5-.5,8.9-1.3,8.9-1.3a65.625,65.625,0,0,1-13.3,3.1,4.874,4.874,0,0,0-1.1.4l4.4,1.5a11.528,11.528,0,0,0,11.3-2l5.9-4.9-7.2-2.5C66.2,50.9,66,50.8,65.8,50.8Z"/><path class="a" d="M74.3,37.9a33.245,33.245,0,0,1-4.6,8.5,60.718,60.718,0,0,0,8-5.3,51.76,51.76,0,0,1-8.5,7l4.4-.6a9.421,9.421,0,0,0,7.2-5.6l2.3-5.7-6.1.9A12.046,12.046,0,0,0,74.3,37.9Z"/><path class="a" d="M3.5,31.8l3.3,2.1a34.552,34.552,0,0,1-3.6-7.8,44.725,44.725,0,0,0,4.3,7.2l.2-3.7a7.769,7.769,0,0,0-3.5-6.8L.3,20.2,0,25A7.769,7.769,0,0,0,3.5,31.8Z"/><path class="a" d="M30.9,58.5a65.625,65.625,0,0,1-13.3-3.1s3.9.8,8.9,1.3a30.558,30.558,0,0,1-8.3-5.9c-.2.1-.4.1-.6.2l-7.2,2.5,5.9,4.9a11.614,11.614,0,0,0,11.3,2L32,58.9A7.6,7.6,0,0,0,30.9,58.5Z"/><path class="a" d="M14.7,48.1a46.638,46.638,0,0,1-8.5-7,74.456,74.456,0,0,0,8.1,5.4A39.16,39.16,0,0,1,9.6,38,7.293,7.293,0,0,0,7,37.1L.9,36.2l2.3,5.7a9.263,9.263,0,0,0,7.2,5.6Z"/><circle class="b" cx="8.5" cy="8.5" r="8.5" transform="translate(33.5 50)"/><path class="a" d="M42,65h0a6.487,6.487,0,0,1-6.5-6.5h0A6.487,6.487,0,0,1,42,52h0a6.487,6.487,0,0,1,6.5,6.5h0A6.487,6.487,0,0,1,42,65Z"/><path class="b" d="M45.2,57.6a1.6,1.6,0,0,1-.5,1,2.7,2.7,0,0,1-.8.7,3,3,0,0,1-1,.4,4.1,4.1,0,0,1-1.1.1H41l-.5,2.3H38.8l1.4-6.7h2.6a4.1,4.1,0,0,1,1.1.1,2.01,2.01,0,0,1,.8.4,1.012,1.012,0,0,1,.4.7A1.1,1.1,0,0,1,45.2,57.6Zm-1.7,0v-.4a.215.215,0,0,0-.2-.2c-.1-.1-.2-.1-.4-.1H41.7l-.4,1.7h1.2c.2,0,.3-.1.4-.1l.3-.3A3.287,3.287,0,0,0,43.5,57.6Z"/></g></svg>